<svg width="60" height="60" viewBox="0 0 60 60" fill="none" xmlns="http://www.w3.org/2000/svg">
<path d="M58.2422 34.8047H51.8235C49.3274 32.9112 46.2618 31.875 43.119 31.875H43.0078H26.6016C22.4014 31.875 18.9844 35.2921 18.9844 39.4922V52.3828C18.9844 56.5829 22.4014 60 26.6016 60H43.119C46.2618 60 49.3274 58.9638 51.8235 57.0703H58.2422C59.213 57.0703 60 56.2833 60 55.3125V36.5625C60 35.5917 59.213 34.8047 58.2422 34.8047ZM30.7031 52.3828C30.7031 54.6444 28.8632 56.4844 26.6016 56.4844C24.34 56.4844 22.5 54.6444 22.5 52.3828V39.4922C22.5 37.2306 24.34 35.3906 26.6016 35.3906H27.4898C27.2947 35.9408 27.1875 36.5321 27.1875 37.1484C27.1875 39.44 28.6571 41.3939 30.7031 42.1195V52.3828ZM49.4531 54.4507C47.6127 55.7671 45.3925 56.4844 43.119 56.4844H33.0151C33.7757 55.2994 34.2188 53.8923 34.2188 52.3828V42.4219H40.6641C41.6348 42.4219 42.4219 41.6348 42.4219 40.6641C42.4219 39.6933 41.6348 38.9062 40.6641 38.9062H32.4609C31.4917 38.9062 30.7031 38.1177 30.7031 37.1484C30.7031 36.1792 31.4917 35.3906 32.4609 35.3906H43.0078H43.119C45.3923 35.3906 47.6127 36.1079 49.4531 37.4243V54.4507ZM56.4844 53.5547H52.9688V38.3203H56.4844V53.5547Z" fill="#DC6024"/>
<path d="M41.0156 20.5078V7.61719C41.0156 3.41707 37.5986 0 33.3984 0H16.9922H16.881C13.7382 0 10.6726 1.03617 8.17652 2.92969H1.75781C0.787031 2.92969 0 3.71672 0 4.6875V23.4375C0 24.4083 0.787031 25.1953 1.75781 25.1953H8.17652C10.6726 27.0888 13.7382 28.125 16.881 28.125H33.3984C37.5986 28.125 41.0156 24.7079 41.0156 20.5078ZM37.5 7.61719V20.5078C37.5 22.7694 35.66 24.6094 33.3984 24.6094C31.1368 24.6094 29.2969 22.7694 29.2969 20.5078V10.2445C31.3429 9.51891 32.8125 7.56504 32.8125 5.27344C32.8125 4.65715 32.7053 4.06582 32.5102 3.51562H33.3984C35.66 3.51562 37.5 5.35559 37.5 7.61719ZM3.51562 6.44531H7.03125V21.6797H3.51562V6.44531ZM10.5469 22.5757V5.5493C12.3873 4.23293 14.6075 3.51562 16.881 3.51562H16.9922H27.5391C28.5083 3.51562 29.2969 4.30418 29.2969 5.27344C29.2969 6.2427 28.5083 7.03125 27.5391 7.03125H19.3359C18.3652 7.03125 17.5781 7.81828 17.5781 8.78906C17.5781 9.75984 18.3652 10.5469 19.3359 10.5469H25.7812V20.5078C25.7812 22.0173 26.2245 23.4244 26.9849 24.6094H16.881C14.6075 24.6094 12.3873 23.8921 10.5469 22.5757Z" fill="#DC6024"/>
<path d="M13.0033 43.352C12.9673 42.8438 12.7124 42.3762 12.3047 42.0703L7.61718 38.5547C6.84057 37.9723 5.73878 38.1298 5.15624 38.9063C4.5737 39.6829 4.7312 40.7847 5.5078 41.3672L8.57389 43.6668L5.31948 46.9212C4.95913 47.2814 4.77292 47.7804 4.80913 48.2888C4.84522 48.7969 5.10011 49.2646 5.5078 49.5703L10.1953 53.086C10.5115 53.323 10.8816 53.4376 11.2486 53.4376C11.7831 53.4376 12.3109 53.1948 12.6562 52.7344C13.2388 51.9578 13.0813 50.856 12.3047 50.2735L9.23858 47.9739L12.493 44.7195C12.8533 44.3592 13.0396 43.8603 13.0033 43.352Z" fill="#DC6024"/>
<path d="M50.7614 16.3331L47.6953 18.6327C46.9187 19.2152 46.7612 20.317 47.3437 21.0936C47.6891 21.5542 48.2169 21.7969 48.7514 21.7969C49.1184 21.7969 49.4885 21.6823 49.8047 21.4452L54.4922 17.9296C54.8999 17.6238 55.1548 17.1561 55.1908 16.6479C55.2271 16.1395 55.0408 15.6405 54.6805 15.2803L51.4261 12.0259L54.4922 9.72645C55.2688 9.14391 55.4263 8.04211 54.8437 7.26551C54.2612 6.48867 53.1594 6.33153 52.3828 6.91395L47.6953 10.4296C47.2876 10.7353 47.0327 11.203 46.9966 11.7113C46.9604 12.2196 47.1466 12.7186 47.507 13.0788L50.7614 16.3331Z" fill="#DC6024"/>
</svg>
