<svg width="60" height="60" viewBox="0 0 60 60" fill="none" xmlns="http://www.w3.org/2000/svg">
<g clip-path="url(#clip0_15_40)">
<path d="M46.6727 58.5933L43.9681 54.9874L40.647 40.0418C40.3672 38.7831 39.9155 37.569 39.3041 36.4336L33.6971 26.0207V23.4241C33.6971 22.9387 33.3036 22.5452 32.8182 22.5452C32.3328 22.5452 31.9393 22.9387 31.9393 23.4241V25.064L25.1482 23.0443C25.7577 22.2919 26.1149 21.3694 26.1727 20.4044C26.4938 20.4957 26.832 20.5456 27.1819 20.5456H32.8182C34.8568 20.5456 36.5152 18.8872 36.5152 16.8486V14.4346L40.9466 10.6362C41.5839 10.09 41.9169 9.26514 41.8376 8.4296C41.7581 7.59406 41.2758 6.84665 40.547 6.43029L36.2388 3.96855C35.2273 1.8933 33.2765 0.380072 30.9678 0.0660125C29.0299 -0.19754 27.1326 0.32769 25.6249 1.54537C25.0259 2.02924 24.5179 2.60849 24.1131 3.25079L15.461 6.95891C14.4653 7.38571 13.8167 8.3232 13.7685 9.40541C13.7202 10.4877 14.2828 11.4791 15.2367 11.9928L23.4847 16.434V16.8485C23.4847 17.7919 23.8403 18.6534 24.424 19.3073V20.1263C24.424 20.8273 24.1688 21.5031 23.7053 22.0292L21.2572 24.8082C19.5601 26.7347 18.531 29.1037 18.2812 31.659L15.9976 55.0326L13.3271 58.5932C13.1273 58.8595 13.0951 59.2158 13.2441 59.5136C13.3929 59.8114 13.6973 59.9995 14.0302 59.9995H19.6665C20.1519 59.9995 20.5454 59.6059 20.5454 59.1206V55.5002L25.313 40.6015C25.461 40.1392 25.2061 39.6444 24.7438 39.4965C24.282 39.3486 23.7869 39.6034 23.6389 40.0657L19.0254 54.4842H17.8178L19.816 34.0305L25.153 35.3351L24.8419 36.3075C24.6939 36.7698 24.9488 37.2646 25.4111 37.4125C25.8732 37.5604 26.3681 37.3056 26.516 36.8433L27.5525 33.6042L34.5901 41.4237C34.7696 41.6231 34.9035 41.8533 34.9884 42.1077L39.4543 55.5058V59.1207C39.4543 59.6061 39.8479 59.9996 40.3332 59.9996H45.9696C46.3025 59.9996 46.6068 59.8115 46.7556 59.5137C46.9045 59.2159 46.8724 58.8596 46.6727 58.5933ZM18.7879 58.2418H15.7883L17.2882 56.2421H18.7879V58.2418ZM21.0939 9.33346L22.887 8.61628L22.78 10.0079L21.0939 9.33346ZM32.8182 18.7877H27.1819C26.1126 18.7877 25.2427 17.9178 25.2427 16.8485V13.0305H27.3868C27.7547 14.1213 28.7868 14.9092 30.0001 14.9092C31.2134 14.9092 32.2454 14.1212 32.6134 13.0305H34.7575V16.8485C34.7574 17.9178 33.8875 18.7877 32.8182 18.7877ZM32.7436 7.39754C32.455 8.34722 31.6438 9.10085 30.6767 9.31764C29.4873 9.58424 28.0763 9.08878 27.4464 7.83547L31.419 5.84916C31.7541 5.68158 32.1433 5.70936 32.4601 5.92322C32.5957 6.01474 32.9071 6.2783 32.8692 6.74599C32.8518 6.96067 32.8095 7.18004 32.7436 7.39754ZM30.003 11.151C30.3309 11.151 30.6647 11.1155 30.9998 11.0449V12.1493C30.9998 12.15 30.9997 12.1509 30.9997 12.1516V12.1527C30.9991 12.7035 30.5509 13.1514 29.9999 13.1514C29.4485 13.1514 29 12.7029 29 12.1516V11.042C29.3251 11.1133 29.6609 11.151 30.003 11.151ZM39.6748 7.95652C39.9114 8.09164 40.0617 8.32472 40.0875 8.59589C40.1133 8.86706 40.0095 9.12428 39.8026 9.30159L37.2904 11.4549C37.3075 11.329 37.3118 11.2009 37.302 11.0726L36.9602 6.62845C36.9541 6.54911 36.9455 6.47048 36.9369 6.39185L39.6748 7.95652ZM26.7295 2.91294C27.8566 2.00252 29.2778 1.60994 30.7309 1.80775C33.129 2.134 35.0117 4.21804 35.2075 6.76333L35.5493 11.2075C35.5499 11.2148 35.5515 11.2339 35.5334 11.2533C35.5155 11.2727 35.4963 11.2727 35.4891 11.2727H32.7577V10.2475C33.5384 9.66838 34.1398 8.84807 34.4254 7.90847C34.5279 7.57098 34.5939 7.22751 34.6213 6.88766C34.6995 5.92228 34.2595 5.01714 33.444 4.46636C32.6069 3.90105 31.5297 3.8284 30.633 4.27675L25.9646 6.61099C25.5983 6.79415 25.4071 7.20571 25.5033 7.60367C25.7707 8.70968 26.4026 9.6208 27.2425 10.2431V11.2725H24.5111C24.5038 11.2725 24.4846 11.2725 24.4668 11.2532C24.4488 11.2338 24.4503 11.2147 24.4509 11.2074L24.8079 6.56599C24.9173 5.14241 25.6177 3.81082 26.7295 2.91294ZM16.0703 10.4452C15.7105 10.2515 15.5065 9.89209 15.5247 9.48381C15.5428 9.07553 15.778 8.73558 16.1536 8.57468L23.1802 5.56322C23.1211 5.84881 23.0777 6.13826 23.0552 6.43134L23.0374 6.6629L18.4011 8.51749C18.0675 8.65097 17.8487 8.97405 17.8487 9.33346C17.8487 9.69287 18.0675 10.0161 18.4011 10.1494L22.8414 11.9256C22.9226 12.1158 23.0343 12.2935 23.177 12.4477C23.2699 12.5478 23.3737 12.6353 23.4849 12.7114V14.4377L16.0703 10.4452ZM26.9973 31.0193C26.6896 31.0854 26.4407 31.3109 26.3448 31.6107L25.6901 33.6569L19.9886 32.2632L20.0309 31.8301C20.2446 29.6444 21.1248 27.618 22.5765 25.9702L23.8727 24.4987L32.2175 26.9806L34.1599 30.5879L29.9533 33.6442L27.8352 31.2907C27.6246 31.0566 27.305 30.9532 26.9973 31.0193ZM35.8966 40.2477L31.1358 34.9579L35.0009 32.1496L37.7564 37.2669C38.2912 38.2601 38.6864 39.322 38.9311 40.423L42.0558 54.4841H40.9668L36.6559 41.5519C36.4942 41.0667 36.2388 40.628 35.8966 40.2477ZM41.2121 58.2418V56.242H42.7119L44.2118 58.2417H41.2121V58.2418Z" fill="#DC6024"/>
</g>
<defs>
<clipPath id="clip0_15_40">
<rect width="60" height="60" fill="white"/>
</clipPath>
</defs>
</svg>
