<svg width="60" height="60" viewBox="0 0 60 60" fill="none" xmlns="http://www.w3.org/2000/svg">
<g clip-path="url(#clip0_15_4)">
<path d="M40.9399 38.4433C40.721 38.2256 40.4202 38.1003 40.1122 38.1003C39.8044 38.1003 39.5023 38.2256 39.2834 38.4433C39.0657 38.6611 38.9415 38.963 38.9415 39.271C38.9415 39.5789 39.0657 39.8809 39.2834 40.0986C39.5023 40.3164 39.8043 40.4417 40.1122 40.4417C40.4201 40.4417 40.7209 40.3165 40.9399 40.0986C41.1575 39.881 41.2829 39.579 41.2829 39.271C41.2829 38.9631 41.1578 38.6612 40.9399 38.4433Z" fill="#DC6024"/>
<path d="M59.7845 50.3445C59.4523 49.4057 58.7743 48.6525 57.8756 48.2236L57.8757 48.2237L53.0733 45.9316L53.2229 45.5543C53.4489 44.9851 53.1977 44.338 52.6471 44.07L44.5358 40.1222C43.9542 39.839 43.2539 40.0812 42.971 40.6624C42.6881 41.2438 42.9299 41.9442 43.5112 42.2272L50.6461 45.7L48.448 50.7496L25.744 40.2289C25.5898 40.1576 25.4218 40.1204 25.2518 40.1204H14.1088C13.9971 40.1204 13.8895 40.1371 13.7872 40.1663L12.885 36.9633C12.7098 36.3411 12.0637 35.978 11.4409 36.1539C10.8186 36.3291 10.4562 36.9758 10.6315 37.598L12.5629 44.4544H6.54234L4.91824 33.2941C4.78055 32.3483 5.06039 31.3911 5.6857 30.6682C6.31102 29.9454 7.21793 29.5307 8.17383 29.5307C8.68652 29.5307 9.19945 29.6529 9.65707 29.8841L17.8073 34.0011C17.8144 34.0047 17.8205 34.0069 17.8271 34.0099C17.9821 34.0846 18.1545 34.1269 18.3353 34.1269L26.8671 34.1259L35.3018 38.2313C35.4668 38.3116 35.6413 38.3496 35.8132 38.3496C36.247 38.3496 36.664 38.1074 36.8665 37.691C37.1494 37.1097 36.9076 36.4092 36.3263 36.1262L28.9268 32.5247L31.6146 28.9575H44.7626C45.5326 28.9575 46.2845 28.7412 46.9317 28.3352L53.7048 24.1338C53.9808 23.9626 54.1705 23.6849 54.2338 23.369C54.7712 23.216 55.2783 22.9291 55.7006 22.5069L56.625 21.5825C57.9486 20.2589 57.9486 18.1051 56.625 16.7815L55.0726 15.2291C53.749 13.9056 51.5951 13.9054 50.2714 15.2291L49.3471 16.1535C48.9226 16.5781 48.6349 17.0883 48.4827 17.6289C48.4159 17.6487 48.3499 17.674 48.2861 17.7062L42.0097 20.8819L31.4256 19.4013C32.1934 18.6674 32.7661 17.7466 33.0859 16.7032L33.3588 15.8131C34.3757 12.4964 32.5044 8.97106 29.1879 7.95435C27.5813 7.46181 25.8787 7.62446 24.3947 8.41231C22.9103 9.20005 21.8217 10.5188 21.3292 12.1253L21.0562 13.0154C20.5692 14.604 20.7463 16.2399 21.4259 17.6256L12.4822 16.3007L15.0784 14.1094C15.2821 13.9375 15.4179 13.7023 15.4696 13.4446C15.965 13.2849 16.4311 13.0097 16.8238 12.6169L17.7482 11.6925C19.0718 10.3689 19.0718 8.21509 17.7482 6.89134L16.1958 5.33907C14.8721 4.01544 12.7184 4.01567 11.3946 5.33907L10.4702 6.26345C10.0466 6.68708 9.75926 7.19603 9.60691 7.73521C9.39387 7.77095 9.18844 7.86575 9.01688 8.0202L2.5643 13.8379C1.41656 14.8726 0.871758 16.4023 1.10684 17.9296C1.34203 19.4569 2.3216 20.7517 3.72738 21.3934L15.6489 26.8357L16.6009 30.7686L10.7126 27.7944C9.9293 27.3988 9.05145 27.1895 8.17371 27.1895C6.53754 27.1895 4.98539 27.8993 3.915 29.1366C2.84461 30.374 2.3659 32.0122 2.60145 33.6313L4.37133 45.7936C4.40566 46.0294 4.50949 46.2394 4.65914 46.406C1.98363 47.0914 0 49.5226 0 52.4087C0 53.0551 0.52418 53.5793 1.17059 53.5793H24.2047C24.8511 53.5793 25.3753 53.0551 25.3753 52.4087C25.3753 51.7623 24.8511 51.2381 24.2047 51.2381H13.9373C13.9924 51.009 14.0224 50.7702 14.0224 50.5243V46.7958H14.1091C14.4758 46.7958 14.8212 46.6241 15.0425 46.3318C15.2638 46.0396 15.3354 45.6606 15.2359 45.3077L14.4342 42.4617H24.9941L48.752 53.4707C48.9079 53.5429 49.0759 53.5792 49.2442 53.5792C49.3913 53.5792 49.5386 53.5515 49.6779 53.4959C49.8455 53.4291 49.9923 53.3243 50.1108 53.1934L54.5032 55.2898C55.0198 55.5363 55.5655 55.6532 56.1033 55.6532C57.4959 55.6532 58.8346 54.8699 59.4735 53.5314L59.6347 53.1938C60.0634 52.2952 60.1167 51.2832 59.7845 50.3445ZM51.0026 17.8092L51.927 16.8849C52.1323 16.6794 52.4021 16.5768 52.6718 16.5768C52.9418 16.5768 53.2114 16.6794 53.4168 16.8849L54.9691 18.4372C55.3799 18.848 55.3799 19.5164 54.9691 19.9273L54.0448 20.8515C53.8459 21.0505 53.5812 21.1601 53.2998 21.1601C53.0184 21.1601 52.7538 21.0505 52.555 20.8515L51.0026 19.2993C50.5917 18.8884 50.5917 18.22 51.0026 17.8092ZM42.0485 23.2516C42.2851 23.285 42.5262 23.2447 42.7392 23.1369L48.5755 20.1838L51.2324 22.9123L45.6921 26.3489C45.4132 26.5239 45.0915 26.6166 44.7621 26.6166H31.0305C30.6629 26.6166 30.3166 26.7892 30.0956 27.0827L27.5461 30.4665L26.1202 26.155L29.1428 21.4466L42.0485 23.2516ZM25.1742 23.2947L24.2426 20.4779C24.5544 20.6347 24.8824 20.7689 25.2271 20.8745C25.6672 21.0095 26.1146 21.0945 26.5627 21.1317L25.1742 23.2947ZM23.2945 13.7019L23.5675 12.8118C23.8767 11.803 24.5602 10.9752 25.4921 10.4806C26.0707 10.1734 26.7021 10.0177 27.3389 10.0177C27.7279 10.0177 28.119 10.0758 28.5015 10.193C30.5837 10.8313 31.7585 13.0447 31.1202 15.1269L30.8474 16.0171C30.5381 17.0258 29.8547 17.8536 28.9227 18.3483C27.9908 18.8429 26.9223 18.9452 25.9132 18.6358C23.831 17.9978 22.6563 15.7843 23.2945 13.7019ZM12.1257 7.91954L13.0501 6.99517C13.2554 6.78974 13.5253 6.68708 13.795 6.68708C14.065 6.68708 14.3346 6.78974 14.5399 6.99517L16.0923 8.54743C16.5032 8.95817 16.5032 9.62661 16.0923 10.0375L15.1679 10.9618C14.7573 11.3727 14.0886 11.3727 13.678 10.9618L12.1256 9.40958C11.7149 8.99872 11.7149 8.33028 12.1257 7.91954ZM15.4295 20.9545C14.8011 21.1066 14.415 21.7393 14.5671 22.3677L14.9484 23.9426L4.69957 19.2639C4.00336 18.9462 3.53742 18.33 3.42094 17.5737C3.30445 16.8174 3.56379 16.0894 4.13215 15.577L9.77742 10.4875L12.5728 13.1609L8.99063 16.1845C8.63895 16.4813 8.49387 16.9566 8.61961 17.3992C8.74547 17.8418 9.11895 18.1697 9.57398 18.2371L21.6261 20.0225L25.5164 31.785L19.2561 31.7856L16.8429 21.8167C16.6905 21.1886 16.0586 20.8025 15.4295 20.9545ZM11.6811 50.5245C11.681 50.9179 11.361 51.2382 10.9673 51.2382H2.52281C3.01957 49.6836 4.47797 48.5547 6.19535 48.5547C6.84176 48.5547 7.36594 48.0305 7.36594 47.3841C7.36594 47.1695 7.30723 46.969 7.20633 46.796H11.6809V50.5245H11.6811ZM57.5216 52.1852L57.3605 52.5227C57.0311 53.2129 56.2017 53.5062 55.5116 53.177L51.0444 51.045L51.7493 49.2687L52.2837 48.1491L56.8672 50.3367L56.8673 50.3368C57.2016 50.4963 57.4537 50.7765 57.5773 51.1256C57.7009 51.4748 57.6811 51.8511 57.5216 52.1852Z" fill="#DC6024"/>
<path d="M29.4806 51.5815C29.263 51.3627 28.961 51.2385 28.6531 51.2385C28.3453 51.2385 28.0432 51.3627 27.8254 51.5815C27.6077 51.7993 27.4824 52.1002 27.4824 52.4092C27.4824 52.7171 27.6076 53.0191 27.8254 53.2369C28.0443 53.4545 28.3452 53.5799 28.6531 53.5799C28.961 53.5799 29.263 53.4547 29.4806 53.2369C29.6983 53.0192 29.8237 52.7172 29.8237 52.4092C29.8237 52.1001 29.6984 51.7993 29.4806 51.5815Z" fill="#DC6024"/>
</g>
<defs>
<clipPath id="clip0_15_4">
<rect width="60" height="60" fill="white"/>
</clipPath>
</defs>
</svg>
