<svg width="60" height="60" viewBox="0 0 60 60" fill="none" xmlns="http://www.w3.org/2000/svg">
<path d="M51.5626 43.125H49.3618L47.2993 38.4375H47.8126C48.0612 38.4375 48.2997 38.3387 48.4755 38.1629C48.6513 37.9871 48.7501 37.7486 48.7501 37.5C48.7501 37.2514 48.6513 37.0129 48.4755 36.8371C48.2997 36.6613 48.0612 36.5625 47.8126 36.5625H46.4743L45.6493 34.6875H45.9376C46.1862 34.6875 46.4247 34.5887 46.6005 34.4129C46.7763 34.2371 46.8751 33.9986 46.8751 33.75C46.8751 33.5014 46.7763 33.2629 46.6005 33.0871C46.4247 32.9113 46.1862 32.8125 45.9376 32.8125H44.8243L43.9993 30.9375H44.0626C44.3112 30.9375 44.5497 30.8387 44.7255 30.6629C44.9013 30.4871 45.0001 30.2486 45.0001 30C45.0001 29.7514 44.9013 29.5129 44.7255 29.3371C44.5497 29.1613 44.3112 29.0625 44.0626 29.0625H43.1743L42.3432 27.1736C42.5739 27.1333 42.7812 27.0082 42.9243 26.8228C43.0674 26.6375 43.1359 26.4052 43.1164 26.1719C43.0969 25.9385 42.9907 25.7209 42.8188 25.5618C42.6469 25.4028 42.4217 25.3138 42.1876 25.3125H41.5243L39.3751 20.4279V16.875C39.3749 16.7062 39.3595 16.5378 39.3291 16.3718L52.2255 3.47543C52.3566 3.34432 52.4459 3.17727 52.4821 2.99541C52.5183 2.81354 52.4997 2.62504 52.4287 2.45373C52.3578 2.28242 52.2376 2.136 52.0834 2.03299C51.9292 1.92997 51.748 1.87499 51.5626 1.875H25.3126C25.1894 1.875 25.0675 1.89924 24.9538 1.94635C24.84 1.99346 24.7367 2.06252 24.6496 2.14957L22.4943 4.305C21.9587 3.82777 21.261 3.57315 20.5439 3.59321C19.8268 3.61328 19.1445 3.9065 18.6364 4.41293L5.89962 17.1496L4.66505 18.3841C3.88154 19.1676 3.26003 20.0978 2.836 21.1215C2.41197 22.1452 2.19373 23.2424 2.19373 24.3504C2.19373 25.4584 2.41197 26.5556 2.836 27.5793C3.26003 28.603 3.88154 29.5331 4.66505 30.3166L13.8126 39.4641C14.0731 39.7261 14.3831 39.9338 14.7244 40.0752C15.0658 40.2166 15.4318 40.2889 15.8013 40.2879H18.7501C18.9986 40.2882 19.2369 40.387 19.4127 40.5628C19.5884 40.7385 19.6873 40.9768 19.6876 41.2254V44.2234C19.6866 44.5929 19.7589 44.9589 19.9003 45.3003C20.0417 45.6416 20.2494 45.9515 20.5114 46.2121L28.3054 54.0062C29.6082 55.3161 31.1579 56.3546 32.8647 57.0616C34.5715 57.7686 36.4017 58.13 38.2491 58.125H53.4376C54.6803 58.1236 55.8718 57.6293 56.7506 56.7505C57.6294 55.8717 58.1237 54.6803 58.1251 53.4375V49.6875C58.1231 47.9476 57.431 46.2796 56.2008 45.0493C54.9705 43.819 53.3024 43.127 51.5626 43.125ZM51.5626 45C52.8053 45.0014 53.9968 45.4957 54.8756 46.3745C55.7544 47.2533 56.2487 48.4447 56.2501 49.6875V50.625H44.9725C43.6177 50.6287 42.2756 50.3636 41.0239 49.8452C39.7723 49.3267 38.6358 48.5652 37.6804 47.6046L13.1547 23.0789C14.3493 21.5835 15.0001 19.7265 15.0001 17.8125C15.0001 15.8985 14.3493 14.0415 13.1547 12.5461L15.9376 9.76324V10.3406C15.9333 11.9416 16.2466 13.5275 16.8593 15.0065C17.472 16.4856 18.372 17.8285 19.5071 18.9574L24.1676 23.618C25.2966 24.7531 26.6395 25.653 28.1185 26.2657C29.5976 26.8784 31.1835 27.1917 32.7844 27.1875H35.6133L36.4383 29.0625H33.7501C33.5014 29.0625 33.263 29.1613 33.0871 29.3371C32.9113 29.5129 32.8126 29.7514 32.8126 30C32.8126 30.2486 32.9113 30.4871 33.0871 30.6629C33.263 30.8387 33.5014 30.9375 33.7501 30.9375H37.2633L38.0883 32.8125H35.6251C35.3764 32.8125 35.138 32.9113 34.9621 33.0871C34.7863 33.2629 34.6876 33.5014 34.6876 33.75C34.6876 33.9986 34.7863 34.2371 34.9621 34.4129C35.138 34.5887 35.3764 34.6875 35.6251 34.6875H38.9133L39.7383 36.5625H37.5001C37.2514 36.5625 37.013 36.6613 36.8371 36.8371C36.6613 37.0129 36.5626 37.2514 36.5626 37.5C36.5626 37.7486 36.6613 37.9871 36.8371 38.1629C37.013 38.3387 37.2514 38.4375 37.5001 38.4375H40.5633L42.219 42.2004C42.5855 43.0329 43.1863 43.7409 43.9481 44.238C44.7099 44.7351 45.5999 44.9998 46.5096 45H51.5626ZM47.3133 43.125H46.5096C45.9638 43.1249 45.4298 42.966 44.9727 42.6678C44.5156 42.3695 44.1551 41.9448 43.9352 41.4452L42.6118 38.4375H45.2508L47.3133 43.125ZM44.4258 36.5625H41.7868L40.9618 34.6875H43.6008L44.4258 36.5625ZM42.7758 32.8125H40.1368L39.3118 30.9375H41.9508L42.7758 32.8125ZM38.4868 29.0625L37.6618 27.1875H40.3008L41.1258 29.0625H38.4868ZM36.8368 25.3125L35.1868 21.5625H37.8258L39.4758 25.3125H36.8368ZM37.5001 19.6875H33.1067C33.0083 19.6875 32.9103 19.6847 32.8126 19.6804V16.875C32.8128 16.6264 32.9117 16.3882 33.0875 16.2124C33.2632 16.0366 33.5015 15.9378 33.7501 15.9375H36.5626C36.8111 15.9378 37.0494 16.0366 37.2252 16.2124C37.4009 16.3882 37.4998 16.6264 37.5001 16.875V19.6875ZM25.7008 3.75H49.2993L38.3467 14.7026C37.8445 14.2882 37.2136 14.0619 36.5626 14.0625H33.7501C33.0044 14.0633 32.2895 14.3599 31.7622 14.8872C31.235 15.4145 30.9384 16.1293 30.9376 16.875V19.3212C30.007 18.9957 29.1622 18.4639 28.4663 17.7656L25.3597 14.659C24.7483 14.051 24.2637 13.3278 23.9338 12.5312C23.6038 11.7346 23.4352 10.8805 23.4376 10.0184V6.4016C23.4374 6.27981 23.4293 6.15815 23.4135 6.03738L25.7008 3.75ZM19.9621 5.73867C20.0932 5.60755 20.2603 5.51826 20.4421 5.48208C20.624 5.44591 20.8125 5.46447 20.9838 5.53543C21.1551 5.60639 21.3016 5.72656 21.4046 5.88074C21.5076 6.03491 21.5626 6.21618 21.5626 6.4016V10.0184C21.5595 11.1268 21.7764 12.2248 22.2006 13.2489C22.6248 14.273 23.2479 15.2027 24.0338 15.9844L27.1404 19.091C27.9221 19.877 28.8519 20.5002 29.876 20.9244C30.9001 21.3486 31.9982 21.5655 33.1067 21.5625H33.1383L34.7883 25.3125H32.7844C31.4298 25.3162 30.0878 25.0512 28.8362 24.5329C27.5847 24.0145 26.4483 23.253 25.493 22.2926L20.8325 17.632C19.872 16.6767 19.1106 15.5404 18.5922 14.2888C18.0738 13.0372 17.8088 11.6953 17.8126 10.3406V7.88824L19.9621 5.73867ZM11.8191 13.8817C12.6669 15.0168 13.125 16.3957 13.125 17.8125C13.125 19.2293 12.6669 20.6082 11.8191 21.7433L7.88829 17.8125L11.8191 13.8817ZM53.4376 56.25H50.6251V55.3125C50.6251 55.0639 50.5263 54.8254 50.3505 54.6496C50.1747 54.4738 49.9362 54.375 49.6876 54.375C49.4389 54.375 49.2005 54.4738 49.0247 54.6496C48.8488 54.8254 48.7501 55.0639 48.7501 55.3125V56.25H43.1251V55.3125C43.1251 55.0639 43.0263 54.8254 42.8505 54.6496C42.6747 54.4738 42.4362 54.375 42.1876 54.375C41.9389 54.375 41.7005 54.4738 41.5246 54.6496C41.3488 54.8254 41.2501 55.0639 41.2501 55.3125V56.25H38.2491C35.3855 56.258 32.6119 55.2497 30.4219 53.4046L32.5383 51.2883C32.7142 51.1124 32.8131 50.8738 32.8131 50.625C32.8131 50.3762 32.7142 50.1376 32.5383 49.9617C32.3624 49.7858 32.1238 49.687 31.8751 49.687C31.6263 49.687 31.3877 49.7858 31.2118 49.9617L29.0626 52.1113L24.7638 47.8125L26.9133 45.6633C27.0893 45.4874 27.1881 45.2488 27.1881 45C27.1881 44.7512 27.0893 44.5126 26.9133 44.3367C26.7374 44.1608 26.4988 44.062 26.2501 44.062C26.0013 44.062 25.7627 44.1608 25.5868 44.3367L23.4376 46.4863L21.8371 44.8863C21.7498 44.7995 21.6806 44.6962 21.6334 44.5824C21.5863 44.4686 21.5622 44.3466 21.5626 44.2234V41.2254C21.5617 40.4797 21.2651 39.7648 20.7379 39.2376C20.2106 38.7103 19.4957 38.4137 18.7501 38.4129H15.8013C15.6781 38.4132 15.5561 38.3891 15.4423 38.342C15.3285 38.2949 15.2252 38.2256 15.1383 38.1383L11.6634 34.6632L13.7883 32.5383C13.9642 32.3624 14.0631 32.1238 14.0631 31.875C14.0631 31.6262 13.9642 31.3876 13.7883 31.2117C13.6124 31.0358 13.3738 30.937 13.1251 30.937C12.8763 30.937 12.6377 31.0358 12.4618 31.2117L10.3368 33.3367L6.03837 29.0382L8.16333 26.9133C8.33925 26.7374 8.43807 26.4988 8.43807 26.25C8.43807 26.0012 8.33925 25.7626 8.16333 25.5867C7.98742 25.4108 7.74883 25.312 7.50005 25.312C7.25127 25.312 7.01268 25.4108 6.83677 25.5867L4.89064 27.5329C4.20032 26.2861 3.93433 24.8487 4.13281 23.4375C4.33129 22.0263 4.98348 20.7179 5.99091 19.71L6.56255 19.1382L36.3547 48.9304C37.4837 50.0656 38.8268 50.9657 40.306 51.5784C41.7853 52.1911 43.3714 52.5044 44.9725 52.5H56.2501V53.4375C56.2492 54.1832 55.9526 54.898 55.4254 55.4253C54.8981 55.9526 54.1832 56.2492 53.4376 56.25Z" fill="#DC6024"/>
<path d="M2.8125 41.25H11.25C11.4986 41.25 11.7371 41.1512 11.9129 40.9754C12.0887 40.7996 12.1875 40.5611 12.1875 40.3125C12.1875 40.0639 12.0887 39.8254 11.9129 39.6496C11.7371 39.4738 11.4986 39.375 11.25 39.375H2.8125C2.56386 39.375 2.3254 39.4738 2.14959 39.6496C1.97377 39.8254 1.875 40.0639 1.875 40.3125C1.875 40.5611 1.97377 40.7996 2.14959 40.9754C2.3254 41.1512 2.56386 41.25 2.8125 41.25Z" fill="#DC6024"/>
<path d="M22.5 50.625H2.8125C2.56386 50.625 2.3254 50.7238 2.14959 50.8996C1.97377 51.0754 1.875 51.3139 1.875 51.5625C1.875 51.8111 1.97377 52.0496 2.14959 52.2254C2.3254 52.4012 2.56386 52.5 2.8125 52.5H22.5C22.7486 52.5 22.9871 52.4012 23.1629 52.2254C23.3387 52.0496 23.4375 51.8111 23.4375 51.5625C23.4375 51.3139 23.3387 51.0754 23.1629 50.8996C22.9871 50.7238 22.7486 50.625 22.5 50.625Z" fill="#DC6024"/>
<path d="M2.8125 46.875H16.875C17.1236 46.875 17.3621 46.7762 17.5379 46.6004C17.7137 46.4246 17.8125 46.1861 17.8125 45.9375C17.8125 45.6889 17.7137 45.4504 17.5379 45.2746C17.3621 45.0988 17.1236 45 16.875 45H2.8125C2.56386 45 2.3254 45.0988 2.14959 45.2746C1.97377 45.4504 1.875 45.6889 1.875 45.9375C1.875 46.1861 1.97377 46.4246 2.14959 46.6004C2.3254 46.7762 2.56386 46.875 2.8125 46.875Z" fill="#DC6024"/>
</svg>
