<svg width="91" height="90" viewBox="0 0 91 90" fill="none" xmlns="http://www.w3.org/2000/svg">
<g clip-path="url(#clip0_24_62)">
<path d="M45.25 90C70.1028 90 90.25 69.8528 90.25 45C90.25 20.1472 70.1028 0 45.25 0C20.3972 0 0.25 20.1472 0.25 45C0.25 69.8528 20.3972 90 45.25 90Z" fill="#FFB344"/>
<path d="M88.369 57.9037L68.621 38.1556L58.8854 43.8655L52.2911 37.2712L15.8945 66.5332L38.9154 89.554C40.9854 89.8457 43.0995 90 45.25 90C65.6176 90 82.8217 76.4673 88.369 57.9037Z" fill="#FF9451"/>
<path d="M52.2911 37.2712L35.1415 45.2276L17.838 53.2552L20.2792 58.5174L37.4488 50.5519L54.7323 42.5334L52.2911 37.2712Z" fill="#F1333F"/>
<path d="M52.291 37.2712L35.1415 45.2276L37.4488 50.5519L54.7323 42.5334L52.291 37.2712Z" fill="#AE283F"/>
<path d="M41.3828 66.5332H15.8945L14.6623 61.0072L63.3537 38.1556L67.2951 39.7454L76.4357 63.6516L71.0174 65.7234L62.9919 44.7334L28.9015 60.7324H41.3828V66.5332Z" fill="#333333"/>
<path d="M14.6623 61.0072L15.8945 66.5333H41.3828V60.7325H28.9015L39.6703 55.6784L37.3629 50.3536L14.6623 61.0072Z" fill="#333333"/>
<path d="M67.295 39.7454L63.3537 38.1556L37.3629 50.3536L39.6703 55.6784L62.9919 44.7334L71.0174 65.7234L76.4357 63.6516L67.295 39.7454Z" fill="#1A1A1A"/>
<path d="M69.332 57.4805C71.9532 57.4805 74.0781 55.3556 74.0781 52.7344C74.0781 50.1132 71.9532 47.9883 69.332 47.9883C66.7108 47.9883 64.5859 50.1132 64.5859 52.7344C64.5859 55.3556 66.7108 57.4805 69.332 57.4805Z" fill="#808080"/>
<path d="M64.5859 47.0443C67.5469 47.0443 69.9473 44.644 69.9473 41.683C69.9473 38.722 67.5469 36.3217 64.5859 36.3217C61.625 36.3217 59.2246 38.722 59.2246 41.683C59.2246 44.644 61.625 47.0443 64.5859 47.0443Z" fill="#666666"/>
</g>
<defs>
<clipPath id="clip0_24_62">
<rect width="90" height="90" fill="white" transform="translate(0.25)"/>
</clipPath>
</defs>
</svg>
