<svg width="91" height="90" viewBox="0 0 91 90" fill="none" xmlns="http://www.w3.org/2000/svg">
<g clip-path="url(#clip0_24_0)">
<path d="M45.25 90C70.1028 90 90.25 69.8528 90.25 45C90.25 20.1472 70.1028 0 45.25 0C20.3972 0 0.25 20.1472 0.25 45C0.25 69.8528 20.3972 90 45.25 90Z" fill="#F37F47"/>
<path d="M63.2243 22.0868L53.1155 11.978L55.1595 34.7886L72.7127 52.3417L68.7253 56.3292L40.551 28.1551L21.6359 34.1596L40.747 53.8786L18.9166 69.7852L38.648 89.5167C40.8031 89.8336 43.007 90.0001 45.25 90.0001C70.1028 90.0001 90.25 69.8529 90.25 45.0001C90.25 41.2364 89.7852 37.5817 88.9148 34.0876L65.3989 10.5719L63.2243 22.0868Z" fill="#C45C2A" fill-opacity="0.5"/>
<path d="M68.8938 57.0015L68.7644 31.9087L61.6451 27.3815L61.8836 10.5221L65.3989 10.5718L65.1881 25.4682L72.2702 29.9718L72.4094 56.9834L68.8938 57.0015Z" fill="#F1A533"/>
<path d="M69.8963 25.7731H64.2713V62.9297H69.8963V25.7731Z" fill="#333333"/>
<path d="M71.4414 69.7852H44.1953L49.8203 60.1172H69.8594L71.4414 69.7852Z" fill="#808080"/>
<path d="M31.1541 30.0515H26.5996V45.5994H31.1541V30.0515Z" fill="#999999"/>
<path d="M31.1538 30.0515H28.7846V45.5994H31.1538V30.0515Z" fill="#808080"/>
<path d="M50.8604 53.9754L37.2356 45.0255C34.8582 43.1246 31.8437 41.9873 28.5631 41.9873C20.8869 41.9873 14.6642 48.21 14.6642 55.8862C14.6642 63.5623 20.8867 69.7852 28.5629 69.7852H47.319C50.8813 69.7852 53.7692 66.8973 53.7692 63.3349V59.3668C53.7694 57.1945 52.6761 55.1681 50.8604 53.9754Z" fill="#666666"/>
<path d="M50.8604 53.9754L37.2356 45.0255C34.9121 43.1679 31.9794 42.0423 28.7853 41.9921V69.7852H47.3189C50.8815 69.7852 53.7694 66.8973 53.7694 63.3349V59.3668C53.7694 57.1945 52.6761 55.1681 50.8604 53.9754Z" fill="#4D4D4D"/>
<path d="M39.3601 33.0677L23.3786 35.1466C22.3805 35.2765 21.4956 34.4992 21.4956 33.4927V29.0496C21.4956 28.1286 22.2423 27.3818 23.1634 27.3818H39.1449C40.066 27.3818 40.8127 28.1286 40.8127 29.0496V31.4137C40.8127 32.2517 40.191 32.9595 39.3601 33.0677Z" fill="#333333"/>
<path d="M39.1449 27.3818H28.7851V34.4431L39.3601 33.0675C40.191 32.9594 40.8127 32.2515 40.8127 31.4136V29.0496C40.8127 28.1286 40.066 27.3818 39.1449 27.3818Z" fill="#1A1A1A"/>
<path d="M28.8373 64.8373C33.7596 64.8373 37.7498 60.847 37.7498 55.9248C37.7498 51.0026 33.7596 47.0123 28.8373 47.0123C23.9151 47.0123 19.9249 51.0026 19.9249 55.9248C19.9249 60.847 23.9151 64.8373 28.8373 64.8373Z" fill="#1A1A1A"/>
<path d="M28.8378 47.0131C28.8203 47.0131 28.8029 47.0143 28.7853 47.0145V64.8369C28.8029 64.8371 28.8203 64.8383 28.8378 64.8383C33.7601 64.8383 37.7503 60.8481 37.7503 55.9259C37.7503 51.0036 33.7601 47.0131 28.8378 47.0131Z" fill="black"/>
<path d="M20.9465 70.7903C22.3559 70.7903 23.4985 69.6477 23.4985 68.2383C23.4985 66.8288 22.3559 65.6863 20.9465 65.6863C19.537 65.6863 18.3945 66.8288 18.3945 68.2383C18.3945 69.6477 19.537 70.7903 20.9465 70.7903Z" fill="#FF6838"/>
<path d="M52.3816 29.8995L55.162 34.7893L73.7129 24.2409L70.9325 19.3511L52.3816 29.8995Z" fill="black"/>
<path d="M67.2532 56.3409L61.3243 31.9583L53.3511 29.2001L49.6841 12.7426L53.1155 11.9781L56.3555 26.5195L64.2871 29.2632L70.6692 55.5104L67.2532 56.3409Z" fill="#F1A533"/>
<path d="M75.4659 57.5223L25.7411 58.9377L25.6312 53.3143L75.3559 51.8989L75.4659 57.5223Z" fill="#666666"/>
<path d="M75.3559 51.8989L28.7851 53.2245V58.8511L75.4659 57.5223L75.3559 51.8989Z" fill="#999999"/>
</g>
<defs>
<clipPath id="clip0_24_0">
<rect width="90" height="90" fill="white" transform="translate(0.25)"/>
</clipPath>
</defs>
</svg>
