<svg width="90" height="90" viewBox="0 0 90 90" fill="none" xmlns="http://www.w3.org/2000/svg">
<path d="M45 90C69.8528 90 90 69.8528 90 45C90 20.1472 69.8528 0 45 0C20.1472 0 0 20.1472 0 45C0 69.8528 20.1472 90 45 90Z" fill="#33302D"/>
<path d="M48.086 89.8925C70.479 88.3756 88.3756 70.4789 89.8926 48.086L78.3105 36.5039L77.2478 38.6052L73.3887 34.7461L72.1686 44.7071H59.3555L52.5846 51.478L46.0222 44.9156L40.6494 50.2883L24.5215 34.1604L9.84375 47.0427L14.6097 51.8087L11.6895 53.496L48.086 89.8925Z" fill="#242320" fill-opacity="0.5"/>
<path d="M52.4171 55.9833L45 48.0269L37.5827 55.9833L29.6082 47.0429H9.84375V42.8241H31.4982L37.6516 49.7226L45 41.8401L52.3485 49.7226L58.5019 42.8241H80.1562V47.0429H60.3919L52.4171 55.9833Z" fill="#F2F2F2"/>
<path d="M45 48.0269L52.4171 55.9833L60.3919 47.0429H80.1562V42.8241H58.5019L52.3485 49.7226L45 41.8401V48.0269Z" fill="#E6E6E6"/>
<path d="M16.7871 35.9175H11.6895V53.4956H16.7871V35.9175Z" fill="#333333"/>
<path d="M24.5215 34.1597H16.6113V55.2534H24.5215V34.1597Z" fill="#1A1A1A"/>
<path d="M78.3105 36.5046H73.2129V54.0828H78.3105V36.5046Z" fill="#1A1A1A"/>
<path d="M73.3887 34.7466H65.4785V55.8404H73.3887V34.7466Z" fill="black"/>
</svg>
