<svg width="100" height="110" viewBox="0 0 100 110" fill="none" xmlns="http://www.w3.org/2000/svg">
<g clip-path="url(#clip0_8_22)">
<path d="M100 99.0535C100 102.392 77.6142 110 50 110C22.3858 110 0 102.392 0 99.0535C0 95.7149 22.3858 97.9098 50 97.9098C77.6142 97.9098 100 95.7149 100 99.0535Z" fill="#3F3D56"/>
<path opacity="0.1" d="M100 99.0535C100 102.392 77.6142 110 50 110C22.3858 110 0 102.392 0 99.0535C0 95.7149 22.3858 97.9098 50 97.9098C77.6142 97.9098 100 95.7149 100 99.0535Z" fill="black"/>
<path d="M14.2394 54.6139C15.4012 54.6139 16.343 53.6629 16.343 52.4899C16.343 51.3169 15.4012 50.366 14.2394 50.366C13.0777 50.366 12.1359 51.3169 12.1359 52.4899C12.1359 53.6629 13.0777 54.6139 14.2394 54.6139Z" fill="#DC6024"/>
<path d="M23.4628 72.0957C24.6246 72.0957 25.5664 71.1447 25.5664 69.9717C25.5664 68.7987 24.6246 67.8478 23.4628 67.8478C22.301 67.8478 21.3593 68.7987 21.3593 69.9717C21.3593 71.1447 22.301 72.0957 23.4628 72.0957Z" fill="#DC6024"/>
<path d="M16.3431 67.6843C17.5048 67.6843 18.4466 66.7334 18.4466 65.5604C18.4466 64.3873 17.5048 63.4364 16.3431 63.4364C15.1813 63.4364 14.2395 64.3873 14.2395 65.5604C14.2395 66.7334 15.1813 67.6843 16.3431 67.6843Z" fill="#DC6024"/>
<path d="M17.014 95.7077C16.9769 95.6464 16.1013 94.1703 15.7977 91.105C15.5193 88.2927 15.6983 83.5524 18.1331 76.9401C22.7457 64.4136 17.0701 54.3064 17.0121 54.2058L17.2921 54.0417C17.3068 54.0673 18.7714 56.6442 19.6365 60.7476C20.7797 66.1877 20.3634 71.8442 18.4365 77.0541C13.8318 89.5592 17.2552 95.4791 17.2902 95.5375L17.014 95.7077Z" fill="#CFCCE0"/>
<path d="M15.2103 53.6336C14.7623 53.6336 14.3243 53.4995 13.9517 53.2481C13.5792 52.9968 13.2888 52.6396 13.1174 52.2216C12.9459 51.8037 12.9011 51.3438 12.9885 50.9001C13.0759 50.4564 13.2916 50.0488 13.6085 49.7289C13.9253 49.409 14.3289 49.1912 14.7684 49.1029C15.2078 49.0147 15.6633 49.0599 16.0772 49.2331C16.4912 49.4062 16.845 49.6994 17.0939 50.0755C17.3428 50.4517 17.4757 50.8939 17.4757 51.3463C17.475 51.9527 17.2361 52.5341 16.8114 52.9629C16.3867 53.3917 15.8109 53.6329 15.2103 53.6336ZM15.2103 49.3857C14.8263 49.3857 14.4509 49.5007 14.1315 49.7161C13.8122 49.9316 13.5633 50.2378 13.4164 50.596C13.2694 50.9543 13.231 51.3485 13.3059 51.7288C13.3808 52.1091 13.5657 52.4584 13.8373 52.7326C14.1089 53.0068 14.4548 53.1935 14.8315 53.2692C15.2082 53.3448 15.5986 53.306 15.9534 53.1576C16.3082 53.0092 16.6115 52.7579 16.8248 52.4355C17.0382 52.1131 17.1521 51.7341 17.1521 51.3463C17.1515 50.8265 16.9467 50.3282 16.5827 49.9606C16.2187 49.5931 15.7251 49.3863 15.2103 49.3857Z" fill="#CFCCE0"/>
<path d="M21.8447 61.3125C23.0064 61.3125 23.9482 60.3616 23.9482 59.1885C23.9482 58.0155 23.0064 57.0646 21.8447 57.0646C20.6829 57.0646 19.7411 58.0155 19.7411 59.1885C19.7411 60.3616 20.6829 61.3125 21.8447 61.3125Z" fill="#CFCCE0"/>
<path d="M17.3139 66.7041C16.8659 66.7041 16.4279 66.5699 16.0554 66.3186C15.6828 66.0672 15.3925 65.71 15.221 65.2921C15.0496 64.8741 15.0047 64.4142 15.0921 63.9705C15.1795 63.5268 15.3953 63.1192 15.7121 62.7993C16.0289 62.4795 16.4326 62.2616 16.872 62.1733C17.3114 62.0851 17.7669 62.1304 18.1809 62.3035C18.5948 62.4766 18.9486 62.7698 19.1975 63.146C19.4465 63.5221 19.5793 63.9643 19.5793 64.4167C19.5787 65.0232 19.3398 65.6046 18.9151 66.0334C18.4904 66.4622 17.9146 66.7034 17.3139 66.7041ZM17.3139 62.4562C16.9299 62.4562 16.5545 62.5711 16.2352 62.7866C15.9159 63.002 15.667 63.3082 15.52 63.6665C15.373 64.0247 15.3346 64.4189 15.4095 64.7992C15.4844 65.1795 15.6694 65.5289 15.9409 65.8031C16.2125 66.0773 16.5585 66.264 16.9351 66.3396C17.3118 66.4153 17.7022 66.3765 18.057 66.2281C18.4118 66.0797 18.7151 65.8284 18.9285 65.506C19.1418 65.1836 19.2557 64.8045 19.2557 64.4167C19.2551 63.8969 19.0504 63.3986 18.6863 63.031C18.3223 62.6635 17.8288 62.4567 17.3139 62.4562V62.4562Z" fill="#CFCCE0"/>
<path d="M22.8156 71.1153C22.3675 71.1153 21.9295 70.9811 21.557 70.7298C21.1844 70.4785 20.8941 70.1212 20.7226 69.7033C20.5512 69.2853 20.5063 68.8254 20.5937 68.3817C20.6811 67.938 20.8969 67.5305 21.2137 67.2106C21.5305 66.8907 21.9342 66.6729 22.3736 66.5846C22.813 66.4963 23.2685 66.5416 23.6825 66.7148C24.0964 66.8879 24.4502 67.1811 24.6991 67.5572C24.9481 67.9334 25.0809 68.3756 25.0809 68.828C25.0803 69.4344 24.8414 70.0158 24.4167 70.4446C23.992 70.8734 23.4162 71.1146 22.8156 71.1153ZM22.8156 66.8674C22.4315 66.8674 22.0561 66.9824 21.7368 67.1978C21.4175 67.4133 21.1686 67.7195 21.0216 68.0777C20.8746 68.4359 20.8362 68.8302 20.9111 69.2105C20.986 69.5908 21.171 69.9401 21.4425 70.2143C21.7141 70.4885 22.0601 70.6752 22.4367 70.7509C22.8134 70.8265 23.2038 70.7877 23.5586 70.6393C23.9134 70.4909 24.2167 70.2396 24.4301 69.9172C24.6434 69.5948 24.7573 69.2157 24.7573 68.828C24.7567 68.3082 24.552 67.8098 24.1879 67.4423C23.8239 67.0747 23.3304 66.868 22.8156 66.8674Z" fill="#CFCCE0"/>
<path d="M15.6959 77.8139C16.8576 77.8139 17.7994 76.863 17.7994 75.69C17.7994 74.517 16.8576 73.566 15.6959 73.566C14.5341 73.566 13.5923 74.517 13.5923 75.69C13.5923 76.863 14.5341 77.8139 15.6959 77.8139Z" fill="#CFCCE0"/>
<path d="M18.2848 95.7858C18.2848 95.7858 16.1813 90.5576 22.4919 86.6365L18.2848 95.7858Z" fill="#CFCCE0"/>
<path d="M15.6978 95.691C15.6978 95.691 14.7404 90.1312 7.33069 90.1789L15.6978 95.691Z" fill="#CFCCE0"/>
<path d="M91.6404 97.7464H55.8356C55.8356 97.7464 55.1099 86.9985 59.404 86.8764C63.6982 86.7543 63.2143 91.6396 68.5971 84.9222C73.98 78.2048 80.5119 78.5712 81.3586 82.5406C82.2054 86.51 79.7257 89.6855 84.2617 88.7084C88.7978 87.7313 95.3298 90.2962 91.6404 97.7464Z" fill="#DC6024"/>
<path d="M73.1335 97.7488L73.0127 97.7439C73.2945 90.6676 74.7623 86.121 75.944 83.553C77.227 80.7646 78.4634 79.6358 78.4758 79.6248L78.5561 79.716C78.544 79.727 77.322 80.8446 76.0492 83.6141C74.8741 86.1712 73.4143 90.6992 73.1335 97.7488Z" fill="#F2F2F2"/>
<path d="M86.0922 97.7634L85.9761 97.7293C87.3743 92.8834 90.6671 89.8238 90.7002 89.7935L90.7815 89.8839C90.7486 89.914 87.4805 92.9519 86.0922 97.7634Z" fill="#F2F2F2"/>
<path d="M61.475 97.7549L61.3551 97.738C61.8295 94.2834 60.9726 91.6031 60.1702 89.963C59.3013 88.1872 58.31 87.2172 58.3 87.2076L58.3837 87.1195C58.3938 87.1292 59.4005 88.1141 60.2786 89.9089C61.0885 91.5644 61.9536 94.2695 61.475 97.7549Z" fill="#F2F2F2"/>
<path d="M96.4998 97.9098H51.9736L51.9634 97.7575C51.9378 97.3787 51.3698 88.4423 54.2375 85.2537C54.8786 84.5409 55.6508 84.1668 56.5328 84.1417C58.402 84.088 59.5768 84.795 60.5243 85.3624C62.3101 86.4321 63.4899 87.1389 67.7794 81.7858C72.4263 75.9866 77.4401 74.739 80.3224 75.4327C82.1847 75.8811 83.4682 77.1482 83.8439 78.9091C84.1996 80.5766 84.0863 82.1434 83.9953 83.4023C83.8978 84.7494 83.8209 85.8133 84.3688 86.2955C84.8262 86.6978 85.7392 86.7344 87.2418 86.4106C90.2981 85.7523 94.5627 86.3156 96.7032 89.1081C97.8549 90.6104 98.7621 93.3413 96.5445 97.8195L96.4998 97.9098ZM52.2775 97.5831H96.2994C97.9519 94.1979 98.0035 91.3382 96.4473 89.3081C94.4837 86.7464 90.364 86.0721 87.3093 86.7302C85.6768 87.0819 84.704 87.0239 84.1562 86.5418C83.4863 85.9525 83.5685 84.8166 83.6724 83.3786C83.762 82.1405 83.8734 80.5996 83.5275 78.9779C83.1792 77.3449 81.9836 76.1686 80.2474 75.7506C77.457 75.0785 72.5833 76.3103 68.031 81.9913C63.5657 87.5638 62.2205 86.7584 60.3592 85.6435C59.4 85.0691 58.311 84.4176 56.5419 84.4683C55.7514 84.4908 55.0567 84.829 54.4771 85.4734C51.8997 88.339 52.2144 96.3749 52.2775 97.5831Z" fill="#CFCCE0"/>
<path d="M50 105.099C77.6142 105.099 100 102.392 100 99.0535C100 95.7149 77.6142 93.0084 50 93.0084C22.3858 93.0084 0 95.7149 0 99.0535C0 102.392 22.3858 105.099 50 105.099Z" fill="#3F3D56"/>
<path d="M51.0994 19.9731C51.0994 19.9731 48.5998 19.0718 46.9928 22.6773C45.3859 26.2829 42.8862 30.249 42.8862 30.249L44.3146 30.6096C44.3146 30.6096 44.6717 28.0857 45.5644 27.7251L45.2074 30.9701C45.2074 30.9701 55.9202 34.756 60.741 30.6096L60.5625 29.3476C60.5625 29.3476 61.2767 29.5279 61.2767 30.6096L61.8123 30.0687C61.8123 30.0687 61.2767 28.9871 59.6697 27.5448C58.615 26.5982 58.2526 24.7973 58.128 23.6713C58.0347 22.7311 57.6622 21.8414 57.0592 21.1187C55.9913 19.8691 54.0455 18.5409 51.0994 19.9731Z" fill="#333333"/>
<path d="M48.4628 34.1096L45.8738 30.842L43.9321 24.1434L51.3754 16.1377C51.3754 16.1377 52.9935 9.92923 51.5372 10.256C50.0809 10.5828 49.7573 15.1574 49.7573 15.1574L40.3722 22.5096C40.3722 22.5096 41.3431 32.8026 44.0939 36.3969L46.1974 43.0956L48.4628 34.1096Z" fill="#AD8585"/>
<path d="M55.5825 34.1096L58.1715 30.842L60.1133 24.1434L52.6699 16.1377C52.6699 16.1377 51.0518 9.92923 52.5081 10.256C53.9644 10.5828 54.288 15.1574 54.288 15.1574L63.6732 22.5096C63.6732 22.5096 62.7023 32.8026 59.9515 36.3969L57.8479 43.0956L55.5825 34.1096Z" fill="#AD8585"/>
<path d="M52.0227 31.3321C54.3462 31.3321 56.2298 29.4303 56.2298 27.0842C56.2298 24.7382 54.3462 22.8363 52.0227 22.8363C49.6991 22.8363 47.8156 24.7382 47.8156 27.0842C47.8156 29.4303 49.6991 31.3321 52.0227 31.3321Z" fill="#AD8585"/>
<path d="M50.0809 29.3716C50.0809 29.3716 50.2427 32.8026 49.2719 33.9462C48.301 35.0899 47.3301 40.9716 52.0227 41.135C56.7152 41.2984 56.2298 36.2336 56.2298 36.2336L55.2589 33.4561C55.2589 33.4561 53.8026 31.3322 54.288 29.3716H50.0809Z" fill="#AD8585"/>
<path d="M45.712 67.4392L49.191 68.5012C49.191 68.5012 52.0227 66.7857 52.0227 68.4195C52.0227 70.0533 51.0518 72.1773 51.3754 73.6477C51.6991 75.1181 52.3463 78.7125 51.3754 78.7125C50.4046 78.7125 48.4628 72.3406 48.4628 72.3406L45.2266 70.5434L45.712 67.4392Z" fill="#AD8585"/>
<path d="M50.0809 90.3126L48.7864 95.3774C48.7864 95.3774 47.6537 96.8479 48.7864 97.5014C49.3179 97.808 49.7069 98.4385 49.9701 99.0213C50.1995 99.5462 50.5833 99.9871 51.0695 100.284C51.5557 100.581 52.1206 100.72 52.6876 100.681C53.2399 100.635 53.7051 100.415 53.8183 99.8416C53.8496 99.6618 53.8435 99.4774 53.8003 99.3002C53.7572 99.1229 53.678 98.9567 53.5677 98.812C52.3741 97.1834 52.1035 96.1126 52.1035 96.1126L52.589 90.3943L50.0809 90.3126Z" fill="#AD8585"/>
<path d="M46.9476 27.8386C46.9476 27.8386 48.376 25.8555 49.6258 25.495C50.8757 25.1344 51.0542 23.3316 51.0542 23.3316C51.0542 23.3316 54.2681 26.9372 56.2321 27.1175C58.1961 27.2978 56.4106 22.7908 56.4106 22.7908L52.8397 21.8894L49.4473 22.25L46.769 24.0527L46.9476 27.8386Z" fill="#333333"/>
<path d="M44.2557 55.0223L43.6084 56.3294C43.6084 56.3294 27.9126 61.3942 29.2071 66.1323C30.5016 70.8703 37.7832 69.5632 37.7832 69.5632L45.8738 71.0337L46.6828 67.4393L41.0194 65.9689L50.7282 62.3745L51.0518 79.0393L49.7573 90.9661L52.9935 91.2929C52.9935 91.2929 56.5534 80.3464 56.068 75.7717C56.068 75.7717 62.055 57.1463 58.657 54.3688C55.2589 51.5914 44.2557 55.0223 44.2557 55.0223Z" fill="#2F2E41"/>
<path d="M52.2123 36.2358L49.6875 33.1548L47.9773 33.9463L46.1974 39.6646C46.1974 39.6646 44.7411 42.4421 46.521 45.3829C46.521 45.3829 46.8446 47.3435 46.3592 47.8336C45.8738 48.3238 45.712 51.428 45.712 51.428L43.6084 55.5125C43.6084 55.5125 55.5825 57.6365 59.1424 54.6956C59.1424 54.6956 57.2744 47.7419 58.407 45.618C59.5397 43.494 59.7015 40.238 58.407 38.7675C57.1125 37.2971 55.7443 33.4561 55.7443 33.4561L54.9607 32.9501L52.2123 36.2358Z" fill="#E8E8E8"/>
<path d="M61.6519 11.8426H60.1V10.2756H59.959V11.8426H58.4071V11.985H59.959V13.5519H60.1V11.985H61.6519V11.8426Z" fill="#CFCCE0"/>
<path d="M46.9027 8.56635H45.3508V6.99939H45.2097V8.56635H43.6578V8.70873H45.2097V10.2757H45.3508V8.70873H46.9027V8.56635Z" fill="#CFCCE0"/>
<path d="M53.9822 1.56696H52.4305V0H52.2893V1.56696H50.7374V1.70933H52.2893V3.27629H52.4305V1.70933H53.9822V1.56696Z" fill="#CFCCE0"/>
</g>
<defs>
<clipPath id="clip0_8_22">
<rect width="100" height="110" fill="white"/>
</clipPath>
</defs>
</svg>
